<mxfile host="app.diagrams.net" modified="2023-07-15T03:11:08.531Z" agent="Mozilla/5.0 (Windows NT 10.0; Win64; x64) AppleWebKit/537.36 (KHTML, like Gecko) Chrome/114.0.0.0 Safari/537.36 Edg/114.0.1823.79" etag="hYVzqcpPiH3_vBJAwg0C" version="21.5.2" type="github">
  <diagram name="Page-1" id="e7e014a7-5840-1c2e-5031-d8a46d1fe8dd">
    <mxGraphModel dx="1173" dy="743" grid="1" gridSize="10" guides="1" tooltips="1" connect="1" arrows="1" fold="1" page="1" pageScale="1" pageWidth="1169" pageHeight="826" background="none" math="0" shadow="0">
      <root>
        <mxCell id="0" />
        <mxCell id="1" parent="0" />
        <mxCell id="2" value="应用初始化" style="swimlane;whiteSpace=wrap" parent="1" vertex="1">
          <mxGeometry x="164.5" y="128" width="280" height="572" as="geometry" />
        </mxCell>
        <mxCell id="5" value="" style="ellipse;shape=startState;fillColor=#000000;strokeColor=#ff0000;" parent="2" vertex="1">
          <mxGeometry x="100" y="40" width="30" height="30" as="geometry" />
        </mxCell>
        <mxCell id="6" value="" style="edgeStyle=elbowEdgeStyle;elbow=horizontal;verticalAlign=bottom;endArrow=open;endSize=8;strokeColor=#FF0000;endFill=1;rounded=0" parent="2" source="5" target="7" edge="1">
          <mxGeometry x="100" y="40" as="geometry">
            <mxPoint x="115" y="110" as="targetPoint" />
          </mxGeometry>
        </mxCell>
        <mxCell id="7" value="策略初始化&#xa;（DrawConfig）" style="" parent="2" vertex="1">
          <mxGeometry x="42.5" y="110" width="145" height="50" as="geometry" />
        </mxCell>
        <mxCell id="8" value="初始化算法&#xa;(1.必中奖策略)&#xa;(2.单项随机概率中奖策略)" style="" parent="2" vertex="1">
          <mxGeometry x="42.5" y="220" width="145" height="50" as="geometry" />
        </mxCell>
        <mxCell id="9" value="" style="endArrow=open;strokeColor=#FF0000;endFill=1;rounded=0" parent="2" source="7" target="8" edge="1">
          <mxGeometry relative="1" as="geometry" />
        </mxCell>
        <mxCell id="10" value="put into &#xa;drawAlgorithmMap" style="" parent="2" vertex="1">
          <mxGeometry x="60" y="325" width="110" height="50" as="geometry" />
        </mxCell>
        <mxCell id="11" value="" style="endArrow=open;strokeColor=#FF0000;endFill=1;rounded=0" parent="2" source="8" target="10" edge="1">
          <mxGeometry relative="1" as="geometry" />
        </mxCell>
        <mxCell id="8-UjEIPzGMRAqslCjQFr-67" value="Start" style="text;html=1;align=center;verticalAlign=middle;resizable=0;points=[];autosize=1;strokeColor=none;fillColor=none;" vertex="1" parent="2">
          <mxGeometry x="90" y="22" width="50" height="30" as="geometry" />
        </mxCell>
        <mxCell id="3" value="用户开始抽奖" style="swimlane;whiteSpace=wrap" parent="1" vertex="1">
          <mxGeometry x="444.5" y="128" width="275.5" height="572" as="geometry" />
        </mxCell>
        <mxCell id="13" value="" style="ellipse;shape=startState;fillColor=#000000;strokeColor=#ff0000;" parent="3" vertex="1">
          <mxGeometry x="60" y="40" width="30" height="30" as="geometry" />
        </mxCell>
        <mxCell id="14" value="" style="edgeStyle=elbowEdgeStyle;elbow=horizontal;verticalAlign=bottom;endArrow=open;endSize=8;strokeColor=#FF0000;endFill=1;rounded=0" parent="3" source="13" target="15" edge="1">
          <mxGeometry x="40" y="20" as="geometry">
            <mxPoint x="55" y="90" as="targetPoint" />
          </mxGeometry>
        </mxCell>
        <mxCell id="8-UjEIPzGMRAqslCjQFr-41" value="strageId" style="edgeLabel;html=1;align=center;verticalAlign=middle;resizable=0;points=[];" vertex="1" connectable="0" parent="14">
          <mxGeometry relative="1" as="geometry">
            <mxPoint x="3" y="-2" as="offset" />
          </mxGeometry>
        </mxCell>
        <mxCell id="15" value="获取抽奖策略配置" style="" parent="3" vertex="1">
          <mxGeometry x="20" y="110" width="110" height="50" as="geometry" />
        </mxCell>
        <mxCell id="8-UjEIPzGMRAqslCjQFr-47" value="" style="edgeStyle=orthogonalEdgeStyle;rounded=0;orthogonalLoop=1;jettySize=auto;html=1;strokeColor=#ff0000;" edge="1" parent="3" source="16" target="8-UjEIPzGMRAqslCjQFr-46">
          <mxGeometry relative="1" as="geometry" />
        </mxCell>
        <mxCell id="16" value="根据策略模型&#xa;选择抽奖策略" style="" parent="3" vertex="1">
          <mxGeometry x="20" y="202" width="110" height="50" as="geometry" />
        </mxCell>
        <mxCell id="17" value="" style="endArrow=open;strokeColor=#FF0000;endFill=1;rounded=0" parent="3" source="15" target="16" edge="1">
          <mxGeometry relative="1" as="geometry" />
        </mxCell>
        <mxCell id="8-UjEIPzGMRAqslCjQFr-52" value="" style="edgeStyle=orthogonalEdgeStyle;rounded=0;orthogonalLoop=1;jettySize=auto;html=1;strokeColor=#ff0000;entryX=0.5;entryY=0;entryDx=0;entryDy=0;" edge="1" parent="3" source="8-UjEIPzGMRAqslCjQFr-46" target="8-UjEIPzGMRAqslCjQFr-60">
          <mxGeometry relative="1" as="geometry">
            <mxPoint x="76" y="432.03337045290414" as="targetPoint" />
            <Array as="points">
              <mxPoint x="76" y="412" />
            </Array>
          </mxGeometry>
        </mxCell>
        <mxCell id="8-UjEIPzGMRAqslCjQFr-53" value="是" style="edgeLabel;html=1;align=center;verticalAlign=middle;resizable=0;points=[];" vertex="1" connectable="0" parent="8-UjEIPzGMRAqslCjQFr-52">
          <mxGeometry x="-0.127" y="2" relative="1" as="geometry">
            <mxPoint as="offset" />
          </mxGeometry>
        </mxCell>
        <mxCell id="8-UjEIPzGMRAqslCjQFr-57" value="" style="edgeStyle=orthogonalEdgeStyle;rounded=0;orthogonalLoop=1;jettySize=auto;html=1;strokeColor=#ff0000;" edge="1" parent="3" source="8-UjEIPzGMRAqslCjQFr-46" target="8-UjEIPzGMRAqslCjQFr-56">
          <mxGeometry relative="1" as="geometry" />
        </mxCell>
        <mxCell id="8-UjEIPzGMRAqslCjQFr-58" value="否" style="edgeLabel;html=1;align=center;verticalAlign=middle;resizable=0;points=[];" vertex="1" connectable="0" parent="8-UjEIPzGMRAqslCjQFr-57">
          <mxGeometry x="-0.1724" y="-3" relative="1" as="geometry">
            <mxPoint as="offset" />
          </mxGeometry>
        </mxCell>
        <mxCell id="8-UjEIPzGMRAqslCjQFr-46" value="该策略配置的中奖概率数据是否初始化？" style="rhombus;whiteSpace=wrap;html=1;" vertex="1" parent="3">
          <mxGeometry x="22.5" y="285" width="105" height="105" as="geometry" />
        </mxCell>
        <mxCell id="8-UjEIPzGMRAqslCjQFr-61" value="" style="edgeStyle=orthogonalEdgeStyle;rounded=0;orthogonalLoop=1;jettySize=auto;html=1;strokeColor=#ff0000;" edge="1" parent="3" source="8-UjEIPzGMRAqslCjQFr-56" target="8-UjEIPzGMRAqslCjQFr-60">
          <mxGeometry relative="1" as="geometry">
            <Array as="points">
              <mxPoint x="201" y="432" />
              <mxPoint x="75" y="432" />
            </Array>
          </mxGeometry>
        </mxCell>
        <mxCell id="8-UjEIPzGMRAqslCjQFr-56" value="初始化该策略中奖概率" style="whiteSpace=wrap;html=1;" vertex="1" parent="3">
          <mxGeometry x="165.5" y="307.5" width="70" height="60" as="geometry" />
        </mxCell>
        <mxCell id="8-UjEIPzGMRAqslCjQFr-63" value="" style="edgeStyle=orthogonalEdgeStyle;rounded=0;orthogonalLoop=1;jettySize=auto;html=1;strokeColor=#ff0000;" edge="1" parent="3" source="8-UjEIPzGMRAqslCjQFr-60" target="8-UjEIPzGMRAqslCjQFr-62">
          <mxGeometry relative="1" as="geometry" />
        </mxCell>
        <mxCell id="8-UjEIPzGMRAqslCjQFr-60" value="根据策略方式进行抽奖" style="whiteSpace=wrap;html=1;" vertex="1" parent="3">
          <mxGeometry x="15" y="452" width="120" height="38" as="geometry" />
        </mxCell>
        <mxCell id="8-UjEIPzGMRAqslCjQFr-65" value="" style="edgeStyle=orthogonalEdgeStyle;rounded=0;orthogonalLoop=1;jettySize=auto;html=1;strokeColor=#ff0000;" edge="1" parent="3" source="8-UjEIPzGMRAqslCjQFr-62" target="8-UjEIPzGMRAqslCjQFr-64">
          <mxGeometry relative="1" as="geometry" />
        </mxCell>
        <mxCell id="8-UjEIPzGMRAqslCjQFr-62" value="获取奖品信息" style="whiteSpace=wrap;html=1;" vertex="1" parent="3">
          <mxGeometry x="15" y="522" width="120" height="38" as="geometry" />
        </mxCell>
        <mxCell id="8-UjEIPzGMRAqslCjQFr-64" value="" style="ellipse;shape=startState;fillColor=#000000;strokeColor=#ff0000;" vertex="1" parent="3">
          <mxGeometry x="185.5" y="526" width="30" height="30" as="geometry" />
        </mxCell>
        <mxCell id="8-UjEIPzGMRAqslCjQFr-66" value="Start" style="text;html=1;align=center;verticalAlign=middle;resizable=0;points=[];autosize=1;strokeColor=none;fillColor=none;" vertex="1" parent="3">
          <mxGeometry x="50" y="22" width="50" height="30" as="geometry" />
        </mxCell>
        <mxCell id="8-UjEIPzGMRAqslCjQFr-68" value="End" style="text;html=1;align=center;verticalAlign=middle;resizable=0;points=[];autosize=1;strokeColor=none;fillColor=none;" vertex="1" parent="3">
          <mxGeometry x="180.5" y="502" width="40" height="30" as="geometry" />
        </mxCell>
        <mxCell id="8-UjEIPzGMRAqslCjQFr-45" style="edgeStyle=orthogonalEdgeStyle;rounded=0;orthogonalLoop=1;jettySize=auto;html=1;entryX=1;entryY=0.5;entryDx=0;entryDy=0;dashed=1;strokeColor=#ff0000;" edge="1" parent="1" source="16" target="10">
          <mxGeometry relative="1" as="geometry" />
        </mxCell>
      </root>
    </mxGraphModel>
  </diagram>
</mxfile>
